<svg width="142" height="26" viewBox="0 0 142 26" fill="none" xmlns="http://www.w3.org/2000/svg">
<path d="M5.488 2.824C5.95733 3.63467 6.48 4.62667 7.056 5.8C7.632 6.97333 8.21867 8.21067 8.816 9.512C9.41333 10.792 10 12.104 10.576 13.448C11.1733 14.7707 11.7173 15.9973 12.208 17.128C12.6987 15.9973 13.232 14.7707 13.808 13.448C14.384 12.104 14.9707 10.792 15.568 9.512C16.1653 8.21067 16.752 6.97333 17.328 5.8C17.904 4.62667 18.4267 3.63467 18.896 2.824H22.544C22.736 4.44533 22.9173 6.17333 23.088 8.008C23.2587 9.82133 23.408 11.688 23.536 13.608C23.6853 15.5067 23.8133 17.4267 23.92 19.368C24.048 21.288 24.1547 23.1653 24.24 25H20.272C20.1867 22.4187 20.08 19.7627 19.952 17.032C19.8453 14.3013 19.6747 11.656 19.44 9.096C19.2053 9.58667 18.928 10.1733 18.608 10.856C18.288 11.5387 17.9467 12.2853 17.584 13.096C17.2213 13.8853 16.848 14.7067 16.464 15.56C16.1013 16.4133 15.7387 17.2453 15.376 18.056C15.0347 18.8453 14.7147 19.592 14.416 20.296C14.1173 20.9787 13.8613 21.5653 13.648 22.056H10.64C10.4267 21.5653 10.1707 20.968 9.872 20.264C9.57333 19.56 9.24267 18.8133 8.88 18.024C8.53867 17.2133 8.176 16.3813 7.792 15.528C7.42933 14.6747 7.06667 13.8533 6.704 13.064C6.34133 12.2747 6 11.5387 5.68 10.856C5.36 10.152 5.08267 9.56533 4.848 9.096C4.61333 11.656 4.432 14.3013 4.304 17.032C4.19733 19.7627 4.10133 22.4187 4.016 25H0.0480001C0.133333 23.1653 0.229333 21.2667 0.336 19.304C0.464 17.3413 0.592 15.4 0.72 13.48C0.869334 11.5387 1.02933 9.66133 1.2 7.848C1.37067 6.03467 1.552 4.36 1.744 2.824H5.488ZM28.4572 16.712C28.4572 15.24 28.6706 13.9493 29.0972 12.84C29.5452 11.7307 30.1319 10.8133 30.8572 10.088C31.5826 9.34133 32.4146 8.78667 33.3532 8.424C34.2919 8.04 35.2519 7.848 36.2332 7.848C38.5372 7.848 40.3293 8.56267 41.6093 9.992C42.9106 11.4213 43.5613 13.5547 43.5613 16.392C43.5613 16.6053 43.5506 16.8507 43.5293 17.128C43.5293 17.384 43.5186 17.6187 43.4972 17.832H32.4572C32.5639 19.176 33.0332 20.2213 33.8652 20.968C34.7186 21.6933 35.9452 22.056 37.5452 22.056C38.4839 22.056 39.3373 21.9707 40.1053 21.8C40.8946 21.6293 41.5133 21.448 41.9613 21.256L42.4733 24.424C42.2599 24.5307 41.9612 24.648 41.5773 24.776C41.2146 24.8827 40.7879 24.9787 40.2972 25.064C39.8279 25.1707 39.3159 25.256 38.7612 25.32C38.2066 25.384 37.6412 25.416 37.0652 25.416C35.5932 25.416 34.3132 25.2027 33.2252 24.776C32.1372 24.328 31.2412 23.72 30.5372 22.952C29.8332 22.1627 29.3106 21.2453 28.9692 20.2C28.6279 19.1333 28.4572 17.9707 28.4572 16.712ZM39.6892 14.984C39.6892 14.4507 39.6146 13.9493 39.4653 13.48C39.3159 12.9893 39.0919 12.5733 38.7933 12.232C38.5159 11.8693 38.1639 11.592 37.7373 11.4C37.3319 11.1867 36.8412 11.08 36.2653 11.08C35.6679 11.08 35.1452 11.1973 34.6972 11.432C34.2492 11.6453 33.8652 11.9333 33.5452 12.296C33.2466 12.6587 33.0119 13.0747 32.8412 13.544C32.6706 14.0133 32.5532 14.4933 32.4892 14.984H39.6892ZM48.1145 3.848L51.9865 3.208V8.264H57.9385V11.496H51.9865V18.312C51.9865 19.656 52.1998 20.616 52.6265 21.192C53.0532 21.768 53.7785 22.056 54.8025 22.056C55.5065 22.056 56.1252 21.9813 56.6585 21.832C57.2132 21.6827 57.6505 21.544 57.9705 21.416L58.6105 24.488C58.1625 24.68 57.5758 24.872 56.8505 25.064C56.1252 25.2773 55.2718 25.384 54.2905 25.384C53.0958 25.384 52.0932 25.224 51.2825 24.904C50.4932 24.584 49.8638 24.1253 49.3945 23.528C48.9252 22.9093 48.5945 22.1733 48.4025 21.32C48.2105 20.4453 48.1145 19.4533 48.1145 18.344V3.848ZM71.8575 11.752C71.5375 11.6453 71.0895 11.5387 70.5135 11.432C69.9588 11.304 69.3082 11.24 68.5615 11.24C68.1348 11.24 67.6762 11.2827 67.1855 11.368C66.7162 11.4533 66.3855 11.528 66.1935 11.592V25H62.3215V9.064C63.0682 8.78667 63.9962 8.53067 65.1055 8.296C66.2362 8.04 67.4842 7.912 68.8495 7.912C69.1055 7.912 69.4042 7.93333 69.7455 7.976C70.0868 7.99733 70.4282 8.04 70.7695 8.104C71.1108 8.14667 71.4415 8.21067 71.7615 8.296C72.0815 8.36 72.3375 8.424 72.5295 8.488L71.8575 11.752ZM91.0037 16.616C91.0037 17.9387 90.8117 19.144 90.4277 20.232C90.0437 21.32 89.4997 22.248 88.7957 23.016C88.0917 23.784 87.2384 24.3813 86.2357 24.808C85.2544 25.2347 84.1664 25.448 82.9717 25.448C81.7771 25.448 80.6891 25.2347 79.7077 24.808C78.7264 24.3813 77.8837 23.784 77.1797 23.016C76.4757 22.248 75.9211 21.32 75.5157 20.232C75.1317 19.144 74.9397 17.9387 74.9397 16.616C74.9397 15.2933 75.1317 14.0987 75.5157 13.032C75.9211 11.944 76.4757 11.016 77.1797 10.248C77.9051 9.48 78.7584 8.89333 79.7397 8.488C80.7211 8.06133 81.7984 7.848 82.9717 7.848C84.1451 7.848 85.2224 8.06133 86.2037 8.488C87.2064 8.89333 88.0597 9.48 88.7637 10.248C89.4677 11.016 90.0117 11.944 90.3957 13.032C90.8011 14.0987 91.0037 15.2933 91.0037 16.616ZM87.0357 16.616C87.0357 14.952 86.6731 13.64 85.9477 12.68C85.2437 11.6987 84.2517 11.208 82.9717 11.208C81.6917 11.208 80.6891 11.6987 79.9637 12.68C79.2597 13.64 78.9077 14.952 78.9077 16.616C78.9077 18.3013 79.2597 19.6347 79.9637 20.616C80.6891 21.5973 81.6917 22.088 82.9717 22.088C84.2517 22.088 85.2437 21.5973 85.9477 20.616C86.6731 19.6347 87.0357 18.3013 87.0357 16.616ZM101.457 25.32C100.305 25.2987 99.3447 25.1707 98.5767 24.936C97.8301 24.7013 97.2327 24.3707 96.7847 23.944C96.3367 23.496 96.0167 22.952 95.8247 22.312C95.6541 21.6507 95.5687 20.904 95.5687 20.072V0.807999L99.4407 0.167999V19.336C99.4407 19.8053 99.4727 20.2 99.5367 20.52C99.6221 20.84 99.7607 21.1173 99.9527 21.352C100.145 21.5653 100.401 21.736 100.721 21.864C101.062 21.9707 101.489 22.056 102.001 22.12L101.457 25.32ZM109.677 25H105.805V8.264H109.677V25ZM110.093 3.368C110.093 4.09333 109.858 4.66933 109.389 5.096C108.919 5.52267 108.365 5.736 107.725 5.736C107.063 5.736 106.498 5.52267 106.029 5.096C105.559 4.66933 105.325 4.09333 105.325 3.368C105.325 2.62133 105.559 2.03467 106.029 1.608C106.498 1.18133 107.063 0.967999 107.725 0.967999C108.365 0.967999 108.919 1.18133 109.389 1.608C109.858 2.03467 110.093 2.62133 110.093 3.368ZM114.329 16.648C114.329 15.4107 114.521 14.2587 114.905 13.192C115.289 12.104 115.833 11.1653 116.537 10.376C117.262 9.58667 118.137 8.968 119.161 8.52C120.185 8.072 121.337 7.848 122.617 7.848C124.195 7.848 125.689 8.136 127.097 8.712L126.265 11.88C125.817 11.688 125.305 11.528 124.729 11.4C124.174 11.272 123.577 11.208 122.937 11.208C121.422 11.208 120.27 11.688 119.481 12.648C118.691 13.5867 118.297 14.92 118.297 16.648C118.297 18.312 118.67 19.6347 119.417 20.616C120.163 21.576 121.422 22.056 123.193 22.056C123.854 22.056 124.505 21.992 125.145 21.864C125.785 21.736 126.339 21.576 126.809 21.384L127.353 24.584C126.926 24.7973 126.275 24.9893 125.401 25.16C124.547 25.3307 123.662 25.416 122.745 25.416C121.315 25.416 120.067 25.2027 119.001 24.776C117.955 24.328 117.081 23.72 116.377 22.952C115.694 22.1627 115.182 21.2347 114.841 20.168C114.499 19.08 114.329 17.9067 114.329 16.648ZM135.182 22.216C136.206 22.216 136.953 22.0987 137.422 21.864C137.892 21.608 138.126 21.1813 138.126 20.584C138.126 20.0293 137.87 19.5707 137.358 19.208C136.868 18.8453 136.046 18.4507 134.894 18.024C134.19 17.768 133.54 17.5013 132.942 17.224C132.366 16.9253 131.865 16.584 131.438 16.2C131.012 15.816 130.67 15.3573 130.414 14.824C130.18 14.2693 130.062 13.5973 130.062 12.808C130.062 11.272 130.628 10.0667 131.758 9.192C132.889 8.296 134.425 7.848 136.366 7.848C137.348 7.848 138.286 7.944 139.182 8.136C140.078 8.30667 140.75 8.47733 141.198 8.648L140.494 11.784C140.068 11.592 139.524 11.4213 138.862 11.272C138.201 11.1013 137.433 11.016 136.558 11.016C135.769 11.016 135.129 11.1547 134.638 11.432C134.148 11.688 133.902 12.0933 133.902 12.648C133.902 12.9253 133.945 13.1707 134.03 13.384C134.137 13.5973 134.308 13.8 134.542 13.992C134.777 14.1627 135.086 14.344 135.47 14.536C135.854 14.7067 136.324 14.888 136.878 15.08C137.796 15.4213 138.574 15.7627 139.214 16.104C139.854 16.424 140.377 16.7973 140.782 17.224C141.209 17.6293 141.518 18.0987 141.71 18.632C141.902 19.1653 141.998 19.8053 141.998 20.552C141.998 22.152 141.401 23.368 140.206 24.2C139.033 25.0107 137.348 25.416 135.15 25.416C133.678 25.416 132.494 25.288 131.598 25.032C130.702 24.7973 130.073 24.6053 129.71 24.456L130.382 21.224C130.958 21.4587 131.641 21.6827 132.43 21.896C133.241 22.1093 134.158 22.216 135.182 22.216Z" fill="#4D4D4D"/>
</svg>
